# xmcd
#
# Track frame offsets:
#	150
#	26865
#	134508
#	158726
#	257651
#
# Disc length: 3751 seconds
#
# Revision: 1
# Processed by: cddbd v1.5.2PL0 Copyright (c) Steve Scherf et al.
# Submitted via: audiograbber 1.83.01
#
DISCID=3f0ea505
DTITLE=Kempowski, Walter - Aus groﬂer Zeit - CD 6
DYEAR=1900
DGENRE=
TTITLE0=Musik
TTITLE1=II. Teil - Stimmen, Kapitel 18
TTITLE2=Kapitel 19, Die Tante
TTITLE3=Kapitel 20
TTITLE4=Kapitel 21, Richard
EXTD=
EXTT0=
EXTT1=
EXTT2=
EXTT3=
EXTT4=
PLAYORDER=
